<svg width="509" height="228" viewBox="0 0 509 228" fill="none" xmlns="http://www.w3.org/2000/svg">
<path d="M73.8 143.607L56.2 113.807L1.6 37.0074H45.6L62 64.6074L77 85.2074L117.6 143.607H73.8ZM0 143.607L43.4 81.4074L63 104.607L43.8 143.607H0ZM73 99.4074L53.6 76.2074L72.4 37.0074H116.2L73 99.4074Z" fill="#FF8408"/>
<path d="M190.995 143.607V30.2074L215.195 30.4074L162.395 94.8074L155.795 87.2074H251.195V119.007H139.995L123.995 89.0074L196.795 2.00742H229.195V143.607H190.995Z" fill="#FF8408"/>
<path d="M327.928 145.607C314.461 145.607 302.995 142.807 293.528 137.207C284.195 131.474 277.061 123.274 272.128 112.607C267.328 101.807 264.928 88.8074 264.928 73.6074C264.928 58.4074 267.328 45.4741 272.128 34.8074C277.061 24.0074 284.195 15.8074 293.528 10.2074C302.995 4.47408 314.461 1.60741 327.928 1.60741C341.395 1.60741 352.861 4.47408 362.328 10.2074C371.795 15.8074 378.928 24.0074 383.728 34.8074C388.661 45.4741 391.128 58.4074 391.128 73.6074C391.128 88.8074 388.661 101.807 383.728 112.607C378.928 123.274 371.795 131.474 362.328 137.207C352.861 142.807 341.395 145.607 327.928 145.607ZM327.928 112.607C336.061 112.607 342.328 109.274 346.728 102.607C351.261 95.8074 353.528 86.1407 353.528 73.6074C353.528 60.5407 351.261 50.4741 346.728 43.4074C342.328 36.3407 336.061 32.8074 327.928 32.8074C319.795 32.8074 313.461 36.3407 308.928 43.4074C304.528 50.4741 302.328 60.5407 302.328 73.6074C302.328 86.1407 304.528 95.8074 308.928 102.607C313.461 109.274 319.795 112.607 327.928 112.607Z" fill="#FF8408"/>
<path d="M407.344 143.607L400.544 127.207L440.544 84.2074C442.944 81.6741 445.477 78.8074 448.144 75.6074C450.944 72.2741 453.61 68.9407 456.144 65.6074C458.81 62.1407 460.944 58.8074 462.544 55.6074C464.144 52.2741 464.944 49.4074 464.944 47.0074C464.944 45.1407 464.477 43.4741 463.544 42.0074C462.61 40.4074 461.144 39.1407 459.144 38.2074C457.277 37.1407 454.81 36.6074 451.744 36.6074C449.077 36.6074 446.544 37.2741 444.144 38.6074C441.744 39.8074 439.41 41.8074 437.144 44.6074C435.01 47.2741 432.81 50.8074 430.544 55.2074L401.544 40.0074C404.477 32.2741 408.677 25.4074 414.144 19.4074C419.61 13.2741 425.877 8.47408 432.944 5.00741C440.144 1.54074 447.677 -0.125924 455.544 0.00740721C463.944 0.140747 471.61 1.94075 478.544 5.40741C485.477 8.87408 491.01 13.7407 495.144 20.0074C499.277 26.1407 501.344 33.3407 501.344 41.6074C501.344 44.2741 501.01 47.1407 500.344 50.2074C499.81 53.1407 498.877 56.2074 497.544 59.4074C496.21 62.6074 494.477 66.0741 492.344 69.8074C490.21 73.4074 487.61 77.2741 484.544 81.4074C481.477 85.4074 477.877 89.6741 473.744 94.2074L441.944 128.807L437.944 109.407H508.344V143.607H407.344Z" fill="#FF8408"/>
<path d="M219 215.278V177.752H234.326C236.369 177.752 238.216 178.27 239.865 179.306C241.55 180.307 242.894 181.683 243.898 183.434C244.902 185.185 245.404 187.133 245.404 189.278C245.404 191.422 244.902 193.37 243.898 195.121C242.894 196.872 241.55 198.284 239.865 199.356C238.216 200.392 236.369 200.911 234.326 200.911H224.808V215.278H219ZM224.808 195.335H234.218C235.186 195.335 236.065 195.067 236.853 194.531C237.642 193.959 238.27 193.227 238.736 192.333C239.237 191.404 239.488 190.385 239.488 189.278C239.488 188.17 239.237 187.169 238.736 186.275C238.27 185.382 237.642 184.667 236.853 184.131C236.065 183.595 235.186 183.327 234.218 183.327H224.808V195.335Z" fill="black"/>
<path d="M251.792 215.278V175.607H257.331V215.278H251.792Z" fill="black"/>
<path d="M275.518 215.814C273.188 215.814 271.055 215.17 269.119 213.884C267.219 212.597 265.695 210.846 264.548 208.63C263.401 206.414 262.827 203.913 262.827 201.125C262.827 198.302 263.401 195.8 264.548 193.62C265.731 191.404 267.308 189.671 269.28 188.42C271.288 187.169 273.528 186.544 276.002 186.544C277.472 186.544 278.816 186.758 280.035 187.187C281.254 187.616 282.312 188.223 283.208 189.009C284.14 189.76 284.893 190.636 285.466 191.636C286.076 192.637 286.452 193.709 286.596 194.853L285.359 194.424V187.133H290.952V215.278H285.359V208.576L286.649 208.201C286.434 209.166 285.986 210.113 285.305 211.042C284.66 211.936 283.817 212.74 282.778 213.455C281.774 214.17 280.645 214.741 279.39 215.17C278.171 215.599 276.88 215.814 275.518 215.814ZM276.97 210.721C278.655 210.721 280.143 210.31 281.433 209.488C282.724 208.666 283.728 207.54 284.445 206.111C285.198 204.645 285.574 202.983 285.574 201.125C285.574 199.302 285.198 197.676 284.445 196.247C283.728 194.817 282.724 193.691 281.433 192.869C280.143 192.047 278.655 191.636 276.97 191.636C275.321 191.636 273.851 192.047 272.56 192.869C271.306 193.691 270.302 194.817 269.549 196.247C268.832 197.676 268.473 199.302 268.473 201.125C268.473 202.983 268.832 204.645 269.549 206.111C270.302 207.54 271.306 208.666 272.56 209.488C273.851 210.31 275.321 210.721 276.97 210.721Z" fill="black"/>
<path d="M302.787 227.607L308.487 214.473L308.541 218.869L294.452 187.133H300.905L309.724 207.826C309.903 208.183 310.119 208.737 310.369 209.488C310.62 210.203 310.836 210.917 311.015 211.632L309.617 211.954C309.903 211.203 310.172 210.453 310.423 209.702C310.71 208.952 310.979 208.201 311.23 207.451L318.597 187.133H325.158L313.542 215.278L308.756 227.607H302.787Z" fill="black"/>
<path d="M341.151 227.607C339.143 227.607 337.136 227.286 335.128 226.642C333.156 226.035 331.561 225.231 330.342 224.23L332.385 219.941C333.102 220.478 333.945 220.942 334.913 221.335C335.881 221.764 336.903 222.086 337.978 222.3C339.054 222.55 340.111 222.675 341.151 222.675C343.123 222.675 344.772 222.354 346.098 221.711C347.425 221.067 348.428 220.12 349.11 218.869C349.791 217.618 350.131 216.064 350.131 214.205V208.791L350.723 209.166C350.544 210.274 349.952 211.346 348.948 212.383C347.98 213.383 346.761 214.205 345.292 214.849C343.822 215.492 342.316 215.814 340.774 215.814C338.086 215.814 335.684 215.188 333.569 213.937C331.489 212.651 329.84 210.917 328.621 208.737C327.402 206.522 326.793 204.002 326.793 201.179C326.793 198.355 327.384 195.853 328.567 193.673C329.786 191.458 331.435 189.724 333.515 188.473C335.63 187.187 337.996 186.544 340.613 186.544C341.689 186.544 342.728 186.686 343.732 186.972C344.736 187.223 345.668 187.598 346.528 188.098C347.389 188.563 348.16 189.081 348.841 189.653C349.522 190.225 350.078 190.832 350.508 191.475C350.938 192.119 351.207 192.726 351.314 193.298L350.131 193.727V187.133H355.67V213.562C355.67 215.814 355.33 217.797 354.648 219.513C354.003 221.264 353.053 222.729 351.798 223.908C350.544 225.124 349.02 226.035 347.227 226.642C345.435 227.286 343.409 227.607 341.151 227.607ZM341.366 210.721C343.123 210.721 344.682 210.31 346.044 209.488C347.407 208.666 348.464 207.54 349.217 206.111C349.97 204.681 350.346 203.037 350.346 201.179C350.346 199.32 349.952 197.676 349.163 196.247C348.411 194.781 347.353 193.638 345.991 192.816C344.664 191.994 343.123 191.583 341.366 191.583C339.645 191.583 338.104 192.012 336.741 192.869C335.415 193.691 334.357 194.835 333.569 196.3C332.816 197.73 332.439 199.356 332.439 201.179C332.439 203.001 332.816 204.645 333.569 206.111C334.357 207.54 335.415 208.666 336.741 209.488C338.104 210.31 339.645 210.721 341.366 210.721Z" fill="black"/>
<path d="M363.436 215.278V187.133H369.029V195.979L368.491 193.834C368.885 192.476 369.549 191.243 370.481 190.135C371.449 189.027 372.542 188.152 373.761 187.508C375.016 186.865 376.306 186.544 377.633 186.544C378.242 186.544 378.816 186.597 379.354 186.704C379.927 186.812 380.375 186.937 380.698 187.08L379.246 193.084C378.816 192.905 378.332 192.762 377.794 192.655C377.292 192.512 376.79 192.44 376.288 192.44C375.321 192.44 374.388 192.637 373.492 193.03C372.632 193.387 371.861 193.906 371.18 194.585C370.535 195.228 370.015 195.996 369.62 196.89C369.226 197.748 369.029 198.695 369.029 199.731V215.278H363.436Z" fill="black"/>
<path d="M396.608 215.814C393.848 215.814 391.374 215.188 389.187 213.937C387.036 212.651 385.333 210.917 384.078 208.737C382.824 206.522 382.196 204.002 382.196 201.179C382.196 198.355 382.824 195.853 384.078 193.673C385.333 191.458 387.036 189.724 389.187 188.473C391.374 187.187 393.848 186.544 396.608 186.544C399.333 186.544 401.77 187.187 403.921 188.473C406.108 189.724 407.829 191.458 409.084 193.673C410.339 195.853 410.966 198.355 410.966 201.179C410.966 204.002 410.339 206.522 409.084 208.737C407.829 210.917 406.108 212.651 403.921 213.937C401.77 215.188 399.333 215.814 396.608 215.814ZM396.608 210.774C398.293 210.774 399.799 210.363 401.125 209.541C402.452 208.684 403.491 207.54 404.244 206.111C404.997 204.645 405.355 203.001 405.32 201.179C405.355 199.32 404.997 197.676 404.244 196.247C403.491 194.781 402.452 193.638 401.125 192.816C399.799 191.994 398.293 191.583 396.608 191.583C394.923 191.583 393.399 192.012 392.037 192.869C390.711 193.691 389.671 194.835 388.918 196.3C388.165 197.73 387.807 199.356 387.843 201.179C387.807 203.001 388.165 204.645 388.918 206.111C389.671 207.54 390.711 208.684 392.037 209.541C393.399 210.363 394.923 210.774 396.608 210.774Z" fill="black"/>
<path d="M426.896 215.814C424.889 215.814 423.132 215.349 421.626 214.42C420.156 213.491 419.009 212.186 418.185 210.506C417.396 208.827 417.002 206.825 417.002 204.502V187.133H422.54V203.001C422.54 204.645 422.791 206.075 423.293 207.29C423.831 208.469 424.584 209.381 425.552 210.024C426.556 210.667 427.757 210.989 429.155 210.989C430.194 210.989 431.144 210.828 432.005 210.506C432.865 210.149 433.6 209.667 434.21 209.059C434.855 208.451 435.357 207.719 435.715 206.861C436.074 206.003 436.253 205.074 436.253 204.073V187.133H441.792V215.278H436.253V209.381L437.221 208.737C436.791 210.06 436.056 211.257 435.016 212.329C434.012 213.401 432.811 214.259 431.413 214.902C430.015 215.51 428.509 215.814 426.896 215.814Z" fill="black"/>
<path d="M449.561 215.278V187.133H455.1V192.923L454.132 193.566C454.49 192.315 455.189 191.172 456.229 190.135C457.269 189.063 458.505 188.205 459.939 187.562C461.374 186.883 462.843 186.544 464.349 186.544C466.5 186.544 468.293 186.972 469.727 187.83C471.161 188.652 472.236 189.921 472.953 191.636C473.67 193.352 474.029 195.514 474.029 198.123V215.278H468.49V198.498C468.49 196.89 468.275 195.568 467.844 194.531C467.414 193.459 466.751 192.691 465.855 192.226C464.959 191.726 463.847 191.511 462.521 191.583C461.445 191.583 460.459 191.761 459.563 192.119C458.667 192.44 457.878 192.905 457.197 193.513C456.552 194.12 456.032 194.835 455.637 195.657C455.279 196.443 455.1 197.301 455.1 198.23V215.278H452.357C451.891 215.278 451.425 215.278 450.959 215.278C450.493 215.278 450.027 215.278 449.561 215.278Z" fill="black"/>
<path d="M493.319 215.814C490.738 215.814 488.426 215.188 486.382 213.937C484.375 212.651 482.779 210.917 481.596 208.737C480.413 206.522 479.822 204.002 479.822 201.179C479.822 198.355 480.395 195.853 481.543 193.673C482.726 191.458 484.321 189.724 486.329 188.473C488.336 187.187 490.613 186.544 493.158 186.544C494.556 186.544 495.901 186.776 497.191 187.24C498.518 187.669 499.701 188.277 500.74 189.063C501.78 189.814 502.587 190.653 503.16 191.583C503.77 192.476 504.074 193.387 504.074 194.317L502.461 194.424V175.607H508V215.278H502.461V208.576H503.537C503.537 209.434 503.25 210.292 502.676 211.15C502.103 211.972 501.332 212.74 500.364 213.455C499.432 214.17 498.338 214.741 497.084 215.17C495.865 215.599 494.61 215.814 493.319 215.814ZM494.072 211.042C495.757 211.042 497.245 210.614 498.536 209.756C499.826 208.898 500.83 207.737 501.547 206.271C502.3 204.77 502.676 203.073 502.676 201.179C502.676 199.284 502.3 197.605 501.547 196.139C500.83 194.638 499.826 193.459 498.536 192.601C497.245 191.744 495.757 191.315 494.072 191.315C492.387 191.315 490.899 191.744 489.609 192.601C488.318 193.459 487.296 194.638 486.544 196.139C485.827 197.605 485.468 199.284 485.468 201.179C485.468 203.073 485.827 204.77 486.544 206.271C487.296 207.737 488.318 208.898 489.609 209.756C490.899 210.614 492.387 211.042 494.072 211.042Z" fill="black"/>
</svg>
