<svg width="517" height="234" viewBox="0 0 517 234" fill="none" xmlns="http://www.w3.org/2000/svg">
<path d="M228 221.67V184.144H243.326C245.369 184.144 247.216 184.663 248.865 185.699C250.55 186.7 251.894 188.076 252.898 189.827C253.902 191.578 254.404 193.526 254.404 195.67C254.404 197.814 253.902 199.762 252.898 201.513C251.894 203.265 250.55 204.676 248.865 205.748C247.216 206.785 245.369 207.303 243.326 207.303H233.808V221.67H228ZM233.808 201.728H243.218C244.186 201.728 245.065 201.46 245.853 200.924C246.642 200.352 247.27 199.619 247.736 198.726C248.237 197.797 248.488 196.778 248.488 195.67C248.488 194.562 248.237 193.562 247.736 192.668C247.27 191.775 246.642 191.06 245.853 190.524C245.065 189.988 244.186 189.72 243.218 189.72H233.808V201.728Z" fill="white"/>
<path d="M260.792 221.67V182H266.331V221.67H260.792Z" fill="white"/>
<path d="M284.518 222.206C282.188 222.206 280.055 221.563 278.119 220.276C276.219 218.99 274.695 217.238 273.548 215.023C272.401 212.807 271.827 210.305 271.827 207.518C271.827 204.694 272.401 202.192 273.548 200.012C274.731 197.797 276.308 196.063 278.28 194.812C280.288 193.562 282.528 192.936 285.002 192.936C286.472 192.936 287.816 193.151 289.035 193.579C290.254 194.008 291.312 194.616 292.208 195.402C293.14 196.153 293.893 197.028 294.466 198.029C295.076 199.03 295.452 200.102 295.596 201.245L294.359 200.816V193.526H299.952V221.67H294.359V214.969L295.649 214.594C295.434 215.559 294.986 216.506 294.305 217.435C293.66 218.329 292.817 219.133 291.778 219.847C290.774 220.562 289.645 221.134 288.39 221.563C287.171 221.992 285.88 222.206 284.518 222.206ZM285.97 217.113C287.655 217.113 289.143 216.702 290.433 215.88C291.724 215.058 292.728 213.933 293.445 212.503C294.198 211.038 294.574 209.376 294.574 207.518C294.574 205.695 294.198 204.069 293.445 202.639C292.728 201.21 291.724 200.084 290.433 199.262C289.143 198.44 287.655 198.029 285.97 198.029C284.321 198.029 282.851 198.44 281.56 199.262C280.306 200.084 279.302 201.21 278.549 202.639C277.832 204.069 277.473 205.695 277.473 207.518C277.473 209.376 277.832 211.038 278.549 212.503C279.302 213.933 280.306 215.058 281.56 215.88C282.851 216.702 284.321 217.113 285.97 217.113Z" fill="white"/>
<path d="M311.787 234L317.487 220.866L317.541 225.262L303.452 193.526H309.905L318.724 214.219C318.903 214.576 319.119 215.13 319.369 215.88C319.62 216.595 319.836 217.31 320.015 218.025L318.617 218.346C318.903 217.596 319.172 216.845 319.423 216.095C319.71 215.344 319.979 214.594 320.23 213.843L327.597 193.526H334.158L322.542 221.67L317.756 234H311.787Z" fill="white"/>
<path d="M350.151 234C348.143 234 346.136 233.678 344.128 233.035C342.156 232.427 340.561 231.623 339.342 230.623L341.385 226.334C342.102 226.87 342.945 227.335 343.913 227.728C344.881 228.157 345.903 228.478 346.978 228.693C348.054 228.943 349.111 229.068 350.151 229.068C352.123 229.068 353.772 228.746 355.098 228.103C356.425 227.46 357.428 226.513 358.11 225.262C358.791 224.011 359.131 222.456 359.131 220.598V215.184L359.723 215.559C359.544 216.667 358.952 217.739 357.948 218.775C356.98 219.776 355.761 220.598 354.292 221.241C352.822 221.885 351.316 222.206 349.774 222.206C347.086 222.206 344.684 221.581 342.569 220.33C340.489 219.043 338.84 217.31 337.621 215.13C336.402 212.914 335.793 210.395 335.793 207.571C335.793 204.748 336.384 202.246 337.567 200.066C338.786 197.85 340.435 196.117 342.515 194.866C344.63 193.579 346.996 192.936 349.613 192.936C350.689 192.936 351.728 193.079 352.732 193.365C353.736 193.615 354.668 193.99 355.528 194.491C356.389 194.955 357.16 195.474 357.841 196.045C358.522 196.617 359.078 197.225 359.508 197.868C359.938 198.511 360.207 199.119 360.314 199.691L359.131 200.12V193.526H364.67V219.955C364.67 222.206 364.33 224.19 363.648 225.905C363.003 227.656 362.053 229.122 360.798 230.301C359.544 231.516 358.02 232.427 356.227 233.035C354.435 233.678 352.409 234 350.151 234ZM350.366 217.113C352.123 217.113 353.682 216.702 355.044 215.88C356.407 215.058 357.464 213.933 358.217 212.503C358.97 211.074 359.346 209.43 359.346 207.571C359.346 205.713 358.952 204.069 358.163 202.639C357.411 201.174 356.353 200.03 354.991 199.208C353.664 198.386 352.123 197.975 350.366 197.975C348.645 197.975 347.104 198.404 345.741 199.262C344.415 200.084 343.357 201.227 342.569 202.693C341.816 204.122 341.439 205.748 341.439 207.571C341.439 209.394 341.816 211.038 342.569 212.503C343.357 213.933 344.415 215.058 345.741 215.88C347.104 216.702 348.645 217.113 350.366 217.113Z" fill="white"/>
<path d="M372.436 221.67V193.526H378.029V202.371L377.491 200.227C377.885 198.869 378.549 197.636 379.481 196.528C380.449 195.42 381.542 194.544 382.761 193.901C384.016 193.258 385.306 192.936 386.633 192.936C387.242 192.936 387.816 192.99 388.354 193.097C388.927 193.204 389.375 193.329 389.698 193.472L388.246 199.476C387.816 199.298 387.332 199.155 386.794 199.047C386.292 198.904 385.79 198.833 385.288 198.833C384.321 198.833 383.388 199.03 382.492 199.423C381.632 199.78 380.861 200.298 380.18 200.977C379.535 201.621 379.015 202.389 378.62 203.282C378.226 204.14 378.029 205.087 378.029 206.124V221.67H372.436Z" fill="white"/>
<path d="M405.608 222.206C402.848 222.206 400.374 221.581 398.187 220.33C396.036 219.043 394.333 217.31 393.078 215.13C391.824 212.914 391.196 210.395 391.196 207.571C391.196 204.748 391.824 202.246 393.078 200.066C394.333 197.85 396.036 196.117 398.187 194.866C400.374 193.579 402.848 192.936 405.608 192.936C408.333 192.936 410.77 193.579 412.921 194.866C415.108 196.117 416.829 197.85 418.084 200.066C419.339 202.246 419.966 204.748 419.966 207.571C419.966 210.395 419.339 212.914 418.084 215.13C416.829 217.31 415.108 219.043 412.921 220.33C410.77 221.581 408.333 222.206 405.608 222.206ZM405.608 217.167C407.293 217.167 408.799 216.756 410.125 215.934C411.452 215.076 412.491 213.933 413.244 212.503C413.997 211.038 414.355 209.394 414.32 207.571C414.355 205.713 413.997 204.069 413.244 202.639C412.491 201.174 411.452 200.03 410.125 199.208C408.799 198.386 407.293 197.975 405.608 197.975C403.923 197.975 402.399 198.404 401.037 199.262C399.711 200.084 398.671 201.227 397.918 202.693C397.165 204.122 396.807 205.748 396.843 207.571C396.807 209.394 397.165 211.038 397.918 212.503C398.671 213.933 399.711 215.076 401.037 215.934C402.399 216.756 403.923 217.167 405.608 217.167Z" fill="white"/>
<path d="M435.896 222.206C433.889 222.206 432.132 221.742 430.626 220.812C429.156 219.883 428.009 218.579 427.185 216.899C426.396 215.219 426.002 213.218 426.002 210.895V193.526H431.54V209.394C431.54 211.038 431.791 212.467 432.293 213.682C432.831 214.862 433.584 215.773 434.552 216.416C435.556 217.06 436.757 217.381 438.155 217.381C439.194 217.381 440.144 217.221 441.005 216.899C441.865 216.542 442.6 216.059 443.21 215.452C443.855 214.844 444.357 214.111 444.715 213.254C445.074 212.396 445.253 211.467 445.253 210.466V193.526H450.792V221.67H445.253V215.773L446.221 215.13C445.791 216.452 445.056 217.649 444.016 218.722C443.012 219.794 441.811 220.652 440.413 221.295C439.015 221.902 437.509 222.206 435.896 222.206Z" fill="white"/>
<path d="M458.561 221.67V193.526H464.1V199.315L463.132 199.959C463.49 198.708 464.189 197.564 465.229 196.528C466.269 195.456 467.505 194.598 468.939 193.955C470.374 193.276 471.843 192.936 473.349 192.936C475.5 192.936 477.293 193.365 478.727 194.223C480.161 195.045 481.236 196.313 481.953 198.029C482.67 199.744 483.029 201.907 483.029 204.515V221.67H477.49V204.891C477.49 203.282 477.275 201.96 476.844 200.924C476.414 199.852 475.751 199.083 474.855 198.619C473.959 198.118 472.847 197.904 471.521 197.975C470.445 197.975 469.459 198.154 468.563 198.511C467.667 198.833 466.878 199.298 466.197 199.905C465.552 200.513 465.032 201.227 464.637 202.049C464.279 202.836 464.1 203.693 464.1 204.623V221.67H461.357C460.891 221.67 460.425 221.67 459.959 221.67C459.493 221.67 459.027 221.67 458.561 221.67Z" fill="white"/>
<path d="M502.319 222.206C499.738 222.206 497.426 221.581 495.382 220.33C493.375 219.043 491.779 217.31 490.596 215.13C489.413 212.914 488.822 210.395 488.822 207.571C488.822 204.748 489.395 202.246 490.543 200.066C491.726 197.85 493.321 196.117 495.329 194.866C497.336 193.579 499.613 192.936 502.158 192.936C503.556 192.936 504.901 193.168 506.191 193.633C507.518 194.062 508.701 194.669 509.74 195.456C510.78 196.206 511.587 197.046 512.16 197.975C512.77 198.869 513.074 199.78 513.074 200.709L511.461 200.816V182H517V221.67H511.461V214.969H512.537C512.537 215.827 512.25 216.685 511.676 217.542C511.103 218.364 510.332 219.133 509.364 219.847C508.432 220.562 507.338 221.134 506.084 221.563C504.865 221.992 503.61 222.206 502.319 222.206ZM503.072 217.435C504.757 217.435 506.245 217.006 507.536 216.148C508.826 215.291 509.83 214.129 510.547 212.664C511.3 211.163 511.676 209.465 511.676 207.571C511.676 205.677 511.3 203.997 510.547 202.532C509.83 201.031 508.826 199.852 507.536 198.994C506.245 198.136 504.757 197.707 503.072 197.707C501.387 197.707 499.899 198.136 498.609 198.994C497.318 199.852 496.296 201.031 495.544 202.532C494.827 203.997 494.468 205.677 494.468 207.571C494.468 209.465 494.827 211.163 495.544 212.664C496.296 214.129 497.318 215.291 498.609 216.148C499.899 217.006 501.387 217.435 503.072 217.435Z" fill="white"/>
<path d="M68.8377 140.667L56.4601 118.293L42.5136 99.4247L0 42.916L48.9639 51.3365L60.4698 71.7072L75.4623 91.5769L119.553 145.609L68.8377 140.667ZM5.90388 140.667L44.0826 87.4026L62.3874 108.274L47.3949 140.667H5.90388ZM71.104 104.935L52.7992 84.0632L67.966 51.3365H109.457L71.104 104.935Z" fill="#FF8408"/>
<path d="M195.29 143.615V30.3244H222.933L169.622 96.3444L161.921 87.7678H257.684V121.675H145.731L128.75 89.3634L201.411 2.00168H236.557V143.615H195.29Z" fill="#FF8408"/>
<path d="M335.154 145.61C321.333 145.61 309.618 142.818 300.009 137.233C290.4 131.648 283.094 123.537 278.092 112.899C273.09 102.129 270.589 89.0975 270.589 73.8058C270.589 58.5142 273.09 45.5496 278.092 34.9119C283.094 24.1413 290.4 15.9636 300.009 10.3788C309.618 4.79407 321.333 2.00168 335.154 2.00168C348.976 2.00168 360.691 4.79407 370.3 10.3788C380.041 15.9636 387.412 24.1413 392.415 34.9119C397.417 45.5496 399.918 58.5142 399.918 73.8058C399.918 89.0975 397.417 102.129 392.415 112.899C387.412 123.537 380.041 131.648 370.3 137.233C360.691 142.818 348.976 145.61 335.154 145.61ZM335.154 110.107C342.921 110.107 348.91 106.982 353.122 100.732C357.335 94.4828 359.441 85.5073 359.441 73.8058C359.441 61.4396 357.335 51.9987 353.122 45.4831C348.91 38.8346 342.921 35.5103 335.154 35.5103C327.388 35.5103 321.399 38.8346 317.187 45.4831C312.974 51.9987 310.868 61.4396 310.868 73.8058C310.868 85.5073 312.974 94.4828 317.187 100.732C321.399 106.982 327.388 110.107 335.154 110.107Z" fill="#FF8408"/>
<path d="M413.464 143.615L406.751 127.26L445.648 85.3743C448.018 82.8478 450.585 79.989 453.349 76.7977C456.113 73.4734 458.812 70.0827 461.444 66.6254C464.077 63.1682 466.183 59.8439 467.763 56.6526C469.474 53.4613 470.33 50.669 470.33 48.2755C470.33 46.9458 469.935 45.6825 469.145 44.4858C468.355 43.1561 467.105 42.0923 465.393 41.2945C463.814 40.3637 461.642 39.8983 458.877 39.8983C456.376 39.8983 454.073 40.4302 451.967 41.494C449.992 42.5577 447.952 44.3528 445.846 46.8793C443.871 49.2728 441.699 52.5305 439.33 56.6526L408.331 40.6961C411.358 32.9839 415.636 26.0694 421.165 19.9527C426.693 13.7031 433.012 8.78318 440.12 5.19298C447.36 1.60277 454.929 -0.125846 462.826 0.00712325C471.251 0.140092 478.951 2.00168 485.928 5.59189C492.904 9.04913 498.499 13.9026 502.711 20.1522C506.923 26.4018 509.029 33.7152 509.029 42.0923C509.029 44.7518 508.7 47.5441 508.042 50.4695C507.516 53.3948 506.594 56.4532 505.278 59.6445C504.093 62.8358 502.448 66.293 500.342 70.0162C498.236 73.6064 495.669 77.4625 492.641 81.5846C489.614 85.5737 486.06 89.8288 481.979 94.3498L450.585 128.856L446.636 106.916H516.532V143.615H413.464Z" fill="#FF8408"/>
</svg>
